# xmcd
#
# Track frame offsets:
#	150
#	9514
#	23256
#	31429
#	40386
#	55044
#	65198
#	77474
#	86021
#	97251
#
# Disc length: 1478 seconds
#
# Revision: 1
# Processed by: cddbd v1.5.1PL0 Copyright (c) Steve Scherf et al.
# Submitted via: audiograbber 1.83.01
#
DISCID=7505c40a
DTITLE=Bill and James Monroe - Together Again
DYEAR=1900
DGENRE=
TTITLE0=Six Feet Under The Ground
TTITLE1=Hard Times Have Been Here
TTITLE2=Corina, Corina
TTITLE3=Muddy Waters
TTITLE4=Those Memories Of You
TTITLE5=I'm Going Back To Old Kentucky
TTITLE6=Jake Satterfield
TTITLE7=Have A Feast Here Tonight
TTITLE8=Who's Gonna Shoe Your Pretty Little Feet
TTITLE9=Golden River
EXTD=
EXTT0=
EXTT1=
EXTT2=
EXTT3=
EXTT4=
EXTT5=
EXTT6=
EXTT7=
EXTT8=
EXTT9=
PLAYORDER=
